<svg xmlns="http://www.w3.org/2000/svg" viewBox="0 0 320 340" fill="none" role="img" aria-label="SEOHub">
  <!-- Transparent icon-only mark -->
  <g transform="translate(56, 12)">
    <path
      fill="#2563EB"
      d="M160 16
         C184 16 204 28 220 52
         L292 176
         C308 204 308 228 292 256
         L220 380
         C204 404 184 416 160 416
         L80 416
         C56 416 36 404 20 380
         L-52 256
         C-68 228 -68 204 -52 176
         L20 52
         C36 28 56 16 80 16
         Z"
      transform="scale(0.72)"
    />
    <g fill="#FFFFFF" transform="scale(0.72)">
      <path
        fill-rule="evenodd"
        d="M118 168
           a56 56 0 1 1 0 112
           a56 56 0 1 1 0 -112
           zm0 28
           a28 28 0 1 0 0 56
           a28 28 0 1 0 0 -56z"
      />
      <path
        d="M96 196c10-14 30-18 44-8"
        fill="none"
        stroke="#FFFFFF"
        stroke-width="6"
        stroke-linecap="round"
      />
      <rect x="150" y="120" width="22" height="110" rx="11" transform="rotate(-48 160 200)"/>
      <path d="M214 96 L258 92 L230 140 Z"/>
    </g>
  </g>
</svg>
