<svg xmlns="http://www.w3.org/2000/svg" viewBox="0 0 200 240" fill="none" role="img" aria-label="SEOHub">
  <!-- Fully transparent background -->
  <g transform="translate(28, 8)">
    <!-- Blue rounded hexagon -->
    <path
      fill="#2563EB"
      d="M72 4c10 0 18 3.5 25 14l34 58c7 12 7 22 0 34l-34 58c-7 10.5-15 14-25 14H40c-10 0-18-3.5-25-14L-19 110c-7-12-7-22 0-34L15 18C22 7.5 30 4 40 4h32z"
    />
    <!-- White magnifying glass + arrow cutout -->
    <g fill="#fff" stroke="#fff" stroke-linecap="round" stroke-linejoin="round">
      <circle cx="62" cy="88" r="26" fill="none" stroke-width="12"/>
      <path d="M50 78c5-7 15-9 22-4" fill="none" stroke-width="3.5" opacity="0.95"/>
      <path d="M82 108 L118 58" fill="none" stroke-width="12"/>
      <path d="M104 48 L130 46 L118 72 Z" stroke="none"/>
    </g>
  </g>
  <text
    x="100"
    y="222"
    text-anchor="middle"
    fill="#2563EB"
    font-family="ui-sans-serif, system-ui, -apple-system, 'Segoe UI', sans-serif"
    font-size="36"
    font-weight="800"
    letter-spacing="-0.5"
  >SEOHub</text>
</svg>
