<svg xmlns="http://www.w3.org/2000/svg" viewBox="0 0 200 220" fill="none" role="img" aria-label="SEOHub">
  <!-- Transparent outside; blue rounded hexagon + white magnifier/arrow -->
  <path
    fill="#2563EB"
    d="M100 12
       C111 12 121 18 129 30
       L166 92
       C174 106 174 122 166 136
       L129 198
       C121 210 111 216 100 216
       C89 216 79 210 71 198
       L34 136
       C26 122 26 106 34 92
       L71 30
       C79 18 89 12 100 12 Z"
  />
  <circle cx="86" cy="112" r="34" fill="none" stroke="#FFFFFF" stroke-width="15"/>
  <path d="M70 98c7-9 20-12 30-6" fill="none" stroke="#FFFFFF" stroke-width="5" stroke-linecap="round"/>
  <path d="M112 136 L158 66" stroke="#FFFFFF" stroke-width="15" stroke-linecap="round"/>
  <path fill="#FFFFFF" d="M140 48 L176 44 L158 82 Z"/>
</svg>
