<svg xmlns="http://www.w3.org/2000/svg" viewBox="0 0 64 64" fill="none">
  <!-- Transparent favicon mark -->
  <path
    fill="#2563EB"
    d="M32 4c5 0 9 1.8 12.5 7l17 29c3.5 6 3.5 11 0 17l-17 29c-3.5 5.2-7.5 7-12.5 7h-16c-5 0-9-1.8-12.5-7L-13.5 57c-3.5-6-3.5-11 0-17l17-29C7 5.8 11 4 16 4h16z"
    transform="translate(8 2) scale(0.75)"
  />
  <g transform="translate(18,16)" fill="#fff" stroke="#fff" stroke-linecap="round">
    <circle cx="14" cy="16" r="7" fill="none" stroke-width="3.5"/>
    <path d="M19 21 L28 10" fill="none" stroke-width="3.5"/>
    <path d="M24 7 L31 7 L27 14 Z" stroke="none"/>
  </g>
</svg>
